<svg width="1920" height="960" viewBox="0 0 1920 960" version="1.1" xmlns="http://www.w3.org/2000/svg" xmlns:xlink="http://www.w3.org/1999/xlink">
<title>Frame</title>
<desc>Created using Figma</desc>
<g id="Canvas" transform="translate(384 279)">
<clipPath id="clip-0" clip-rule="evenodd">
<path d="M -384 -279L 1536 -279L 1536 681L -384 681L -384 -279Z" fill="#FFFFFF"/>
</clipPath>
<g id="Frame" clip-path="url(#clip-0)">
<path d="M -384 -279L 1536 -279L 1536 681L -384 681L -384 -279Z" fill="#3B8ED0"/>
<g id="Union" filter="url(#filter0_f)">
<use xlink:href="#path0_fill" transform="translate(-229.793 666.8)" fill="#3B8ED0"/>
</g>
<g id="Violinist" filter="url(#filter1_f)">
<use xlink:href="#path1_fill" transform="translate(-387 2)" fill="#103163"/>
</g>
<g id="Saber" filter="url(#filter2_f)">
<use xlink:href="#path2_fill" transform="translate(1024 -38)" fill="#103163"/>
</g>
</g>
</g>
<defs>
<filter id="filter0_f" filterUnits="userSpaceOnUse" x="-234" y="662" width="590" height="23" color-interpolation-filters="sRGB">
<feFlood flood-opacity="0" result="BackgroundImageFix"/>
<feBlend mode="normal" in="SourceGraphic" in2="BackgroundImageFix" result="shape"/>
<feGaussianBlur stdDeviation="2" result="effect1_foregroundBlur"/>
</filter>
<filter id="filter1_f" filterUnits="userSpaceOnUse" x="-391" y="-2" width="1126" height="687" color-interpolation-filters="sRGB">
<feFlood flood-opacity="0" result="BackgroundImageFix"/>
<feBlend mode="normal" in="SourceGraphic" in2="BackgroundImageFix" result="shape"/>
<feGaussianBlur stdDeviation="2" result="effect1_foregroundBlur"/>
</filter>
<filter id="filter2_f" filterUnits="userSpaceOnUse" x="1020" y="-42" width="520" height="728" color-interpolation-filters="sRGB">
<feFlood flood-opacity="0" result="BackgroundImageFix"/>
<feBlend mode="normal" in="SourceGraphic" in2="BackgroundImageFix" result="shape"/>
<feGaussianBlur stdDeviation="2" result="effect1_foregroundBlur"/>
</filter>
<path id="path0_fill" fill-rule="evenodd" d="M 300.974 0L 0 0L 0 13.5259L 300.974 13.5259L 300.974 0ZM 409.866 0L 580.981 0L 580.981 7.49042L 568.211 13.5259L 414.974 13.5259L 409.866 7.83081L 409.866 0Z"/>
<path id="path1_fill" fill-rule="evenodd" d="M 294.218 215.365C 281.677 241.498 271.861 248.007 243.885 254.801C 233.73 256.281 228.036 256.154 217.88 254.801C 179.99 247.941 163.826 248.59 140.703 254.801C 116.07 262.289 112.181 265.709 97.0811 280.813C 93.6445 284.25 90.6712 287.349 87.934 290.202C 78.6443 299.883 72.0728 306.732 59.3315 314.376L 23.2595 340.387C 8.92191 353.875 4.6033 361.403 1.44861 374.79C -0.788633 385.303 -0.150968 391.198 1.44861 401.711C 5.05319 413.102 8.35477 417.502 16.5485 421.778C 29.5245 429.828 37.0747 432.45 50.9426 434.364C 69.119 440.128 79.1846 441.024 97.0811 441.566C 105.509 444.162 110.054 444.494 118.053 444.433C 118.265 480.473 120.169 499.712 124.764 533.376C 127.19 567.171 132.647 580.863 147.414 598.824L 147.414 679L 203.128 679L 466.787 679C 463.132 673.391 461.477 669.587 461.156 658.399L 461.156 609.042C 478.175 599.678 483.676 591.314 488.839 572.812C 514.12 617.76 529.954 640.673 560.042 679L 736.38 679C 798.552 654.049 832.374 639.988 890.663 614.766C 911.713 589.565 924.148 575.725 953.579 554.353C 962.211 547.899 966.082 542.43 972.035 530.858L 977.068 534.215C 977.053 535.497 977.037 536.72 977.023 537.887C 976.928 545.447 976.863 550.661 977.068 554.353C 987.638 557.866 993.237 560.31 1002.23 566.1L 1002.23 570.883C 996.794 577.602 997.258 580.986 1002.23 586.57C 1007.84 589.894 1009.92 589.105 1013.18 586.57L 1016.5 580.364C 1024.03 585.199 1027.21 589.552 1032.43 597.985C 1024.45 601.915 1022.89 605.135 1024.05 612.249C 1026.81 619.174 1029.73 620.067 1035.79 619.801C 1040.55 619.11 1042.89 617.264 1046.67 612.249L 1050.06 612.249C 1056.47 621.283 1060.28 624.956 1067.67 627.353C 1081.65 631.475 1089.49 630.993 1103.47 627.353C 1110.77 619.381 1114.15 613.093 1118 592.111C 1116.57 576.191 1112.78 569.004 1103.47 559.011C 1094.13 557.332 1089.2 557.297 1081 559.011C 1073.53 561.719 1070.96 563.28 1067.67 566.1C 1062.16 562.026 1059.3 559.232 1056.76 550.996C 1063.16 548.681 1065.76 546.301 1067.67 539.078C 1066.21 533.645 1064.48 531.725 1059.29 530.858C 1052.79 533.132 1051.44 535.838 1050.06 541.295C 1039.73 533.345 1034.04 528.765 1024.05 520.392C 1028.05 519.604 1029.97 518.346 1032.43 513.741C 1033.39 507.064 1032.16 504.409 1024.05 503.289C 1018.66 503.975 1016.22 505.526 1013.18 510.89C 1009.52 513.383 1004.82 511.539 985.457 494.778L 983.93 494.778C 985.013 484.087 983.563 477.979 977.068 466.867C 975.264 459.298 968.703 458.617 951.063 461.215C 946.548 457.909 942.932 454.68 939.492 451.607C 934.07 446.764 929.083 442.311 921.702 438.56C 913.91 437.468 911.183 439.535 909.118 447.79L 898.213 450.307L 834.458 415.905C 834.524 406.193 834.226 400.719 831.102 390.732C 813.301 370.714 801.17 362.291 773.22 355.491C 749.859 346.736 736.595 341.93 706.948 337.031C 705.465 332.181 703.215 330.433 696.043 329.479C 691.45 330.206 689.312 332.088 685.969 337.031C 670.969 335.603 664.304 331.301 654.099 320.25L 712.82 259.836L 815.164 155.79C 815.51 150.092 815.513 147.096 807.614 149.916L 636.482 312.698C 610.382 292.647 593.628 282.981 562.66 266.548C 554.647 254.246 552.827 245.241 550.077 228.789L 550.086 228.079C 550.257 214.411 550.355 206.532 554.272 191.031L 554.272 189.105L 554.272 130.196C 548.119 90.535 541.623 69.502 514.005 38.318C 496.038 22.9683 485.573 15.4883 463.672 11.4674C 436.785 -1.53259 421.278 -3.85561 392.367 6.43294L 390.225 6.43294C 356.824 25.7876 343.998 37.8272 325.257 60.1339C 308.448 81.7338 302.778 94.0546 298.413 116.352C 291.213 140.675 288.787 153.336 285.829 175.088C 281.895 178.297 279.655 217.595 294.218 215.365ZM 627.247 477.563C 627.606 478.377 627.958 479.176 628.322 479.954C 633.356 490.709 676.977 502.609 676.977 502.609C 695.441 510.379 705.213 513.749 721.438 517.712C 731.536 520.565 736.169 521.168 744.088 521.908C 760.17 523.418 768.231 523.238 781.67 521.908C 801.925 516.097 810.017 510.276 820.426 496.735L 828.815 498.413C 837.378 497.295 840.823 495.386 842.237 487.505L 842.295 487.277C 843.735 481.54 844.561 478.253 848.109 471.563L 863.624 471.563C 884.238 477.382 892.648 482.089 906.831 490.862C 890.988 520.037 879.91 536.929 864.065 561.089C 861.412 565.135 858.625 569.385 855.659 573.931C 815.572 588.368 792.646 595.092 749.96 601.62C 735.123 606.499 727.84 607.571 715.566 608.333C 707.341 611.524 702.553 612.771 693.755 614.206L 653.489 612.528C 647.136 611.772 644.269 610.276 643.039 601.62L 623.289 557.988L 570.439 449.747C 616.946 454.196 622.648 467.129 627.247 477.563Z"/>
<path id="path2_fill" fill-rule="evenodd" d="M 286.293 193.824L 295.334 193.824L 308.895 193.824C 311.365 192.931 312.687 192.364 314.169 190.433C 316.244 188.977 316.875 187.888 317.936 185.912C 319.85 181.533 320.429 178.802 321.326 173.856C 321.987 172.477 322.533 171.245 323.045 170.089C 324.566 166.653 325.79 163.89 328.86 159.917C 330.724 156.722 331.934 154.982 334.511 152.005L 334.511 148.991C 331.385 148.419 330.023 147.717 328.86 145.224C 327.134 143.684 326.58 142.54 325.846 140.326C 325.083 138.561 325.292 137.571 325.846 135.805C 325.93 135.56 326.01 135.324 326.087 135.096C 326.9 132.697 327.423 131.154 328.86 128.27L 328.86 122.996C 328.9 122.747 328.937 122.508 328.974 122.276C 329.378 119.698 329.637 118.049 330.744 114.707L 330.744 112.07C 331.443 110.469 331.779 110.979 332.25 115.084C 332.352 118.162 332.318 119.751 332.267 122.183C 332.262 122.443 332.256 122.713 332.25 122.996C 332.21 125.94 332.224 127.523 332.247 130.141L 332.247 130.141L 332.25 130.531C 332.619 131.424 332.854 131.747 333.38 131.661C 334.677 130.852 335.287 129.716 336.017 125.633C 337.054 123.415 337.599 122.174 338.278 119.982C 338.231 116.632 338.231 114.643 338.278 110.887L 338.278 101.805L 339.587 101.805C 340.147 103.544 340.528 104.465 341.291 106.042C 342.035 108.799 342.343 110.063 342.798 112.07C 343.467 114.981 343.863 116.245 344.465 118.163C 344.535 118.383 344.606 118.611 344.682 118.852C 344.583 121.03 344.744 122.996 345.566 122.996L 346.895 122.996L 346.926 122.947C 347.619 121.863 348.017 121.24 348.003 119.982C 348.209 117.922 348.17 116.767 348.003 114.707C 347.544 112.514 347.309 111.367 346.895 109.336C 347.179 107.277 347.108 105.828 346.895 103.134L 346.895 101.252L 348.003 101.805L 348.003 105.349L 349.202 107.926C 349.622 110.085 349.975 111.124 350.709 112.824C 351.252 113.23 351.557 113.19 352.1 112.824C 352.298 108.305 352.305 105.771 352.1 101.252C 350.602 95.9894 349.689 93.4599 348.003 89.291C 347.12 84.951 346.454 82.6132 344.682 78.7701C 340.951 74.2145 338.821 71.6816 334.887 67.2376C 332.047 63.9682 330.51 62.3253 328.173 59.8264C 327.911 59.546 327.639 59.2547 327.353 58.9492C 323.779 55.7353 321.539 54.1813 317.182 51.791C 315.266 50.2693 314.107 49.7051 311.909 49.1538C 311.452 47.8818 313.335 46.7616 317.182 44.7706C 321.115 42.6254 323.332 41.2798 327.353 38.015C 328.517 36.7747 329.174 36.0273 330.367 34.4608C 331.572 32.5933 331.981 31.5089 332.627 29.5631C 332.797 26.7888 332.816 25.3192 332.627 22.9535C 332.292 20.3327 331.958 19.0645 331.12 17.1305C 329.651 15.9607 329.249 15.3827 328.184 13.8511L 328.107 13.7398C 326.983 12.1241 325.592 10.526 323.586 8.84207C 321.473 6.57732 320.223 5.7554 317.936 4.69788C 314.899 3.18472 313.254 2.54015 310.402 1.68392C 308.46 0.672029 307.443 0.278185 305.881 0.176927C 303.39 0.102495 301.993 0.0846269 299.501 0.176927C 298.445 -0.221159 297.065 0.176927 297.065 0.176927L 297.065 1.68392C 298.7 2.30577 299.636 2.3521 301.243 2.4316L 301.361 2.43741C 302.692 2.49433 303.359 2.4856 304.484 2.43741C 304.834 2.76727 305.067 3.02722 305.261 3.24384C 305.829 3.87758 306.065 4.14043 307.917 4.69788C 309.076 5.04689 309.652 5.39345 310.109 5.66873C 310.632 5.98342 311 6.20497 311.909 6.23062L 315.336 8.84207C 317.267 8.8203 317.852 9.29688 318.689 10.3491L 318.737 10.3933L 318.738 10.3936C 320.489 12.0025 321.486 12.9182 322.456 14.87L 324.859 17.1305L 327.353 20.4063L 327.353 26.6081C 327.581 27.6778 327.06 28.3529 326.077 29.5631C 325.536 32.3616 324.64 33.1864 323.478 34.257C 323.157 34.5525 322.816 34.8667 322.456 35.2464C 320.588 38.3473 319.066 39.5167 316.052 41.2422C 313.971 43.7094 312.511 44.7294 309.272 45.7631C 307.477 46.9167 306.424 47.4084 304.484 48.0931C 302.106 49.0153 300.772 48.9805 298.394 48.0931L 291.19 44.2562L 283.279 42.3724L 277.022 41.2422C 274.114 40.542 272.269 40.254 268.211 40.112C 261.671 40.1179 258.277 40.7496 252.439 42.3724C 246.875 42.75 244.373 43.6596 240.335 45.7631L 233.555 49.9073L 226.397 53.298C 221.522 54.5739 219.001 55.0909 213.59 54.805L 211.024 54.805C 209.568 56.7189 208.721 57.5808 207.186 58.9492L 198.898 67.9911C 198.077 71.0645 197.864 72.6571 198.145 75.1493C 196.504 78.8386 195.351 80.3579 192.494 81.1772L 192.494 91.8383C 192.19 94.8099 191.345 95.9414 189.104 97.3773C 189.16 97.8388 189.215 98.2811 189.268 98.7076C 189.767 102.715 190.093 105.33 189.104 109.447L 189.104 131.818C 189.695 134.424 190.183 135.761 192.118 137.312C 191.919 139.485 191.963 140.978 192.118 143.779L 195.131 150.122L 195.131 152.306L 184.207 153.889L 166.125 159.54L 149.55 166.698L 146.913 167.829L 146.913 170.801L 148.044 173.48L 148.044 175.563L 139.379 178.378L 119.791 182.145L 91.5384 187.419L 65.9227 191.564L 56.1285 194.954L 33.9031 203.619L 17.705 211.154L 1.50681 224.34L 0 225.471L 0 227.836L 20.7829 227.836L 25.6157 229.992L 29.3095 229.992C 29.7063 227.589 30.5221 226.109 33.1497 223.21L 44.4507 216.806L 66.6761 207.01L 88.5248 200.982L 106.983 196.461L 126.572 192.694L 139.379 189.628C 143.625 188.252 146.012 187.412 150.304 185.536C 152.488 184.969 153.407 185.045 154.771 185.536L 159.09 189.628C 159.958 191.16 160.626 191.479 161.981 191.564L 165.748 187.796L 174.413 181.391C 174.485 181.334 174.556 181.278 174.625 181.223C 175.924 180.19 176.715 179.562 178.556 180.261C 178.226 182.093 177.328 183.298 175.368 185.536L 163.112 197.968C 156.964 204.821 153.17 208.368 145.783 214.168C 145.614 214.332 145.449 214.493 145.287 214.65C 142.211 217.641 140.341 219.46 135.989 222.08C 135.395 223.706 134.368 223.131 131.469 219.82L 126.572 216.097L 115.35 216.097C 109.381 219.843 106.01 221.726 99.8258 223.587C 86.5031 232.925 79.7224 237.131 68.6611 243.992C 68.0147 244.393 67.3538 244.803 66.6761 245.223L 52.3615 257.871L 52.3615 259.62C 59.5752 261.324 63.8138 261.584 72.0529 259.62C 77.3625 256.313 79.7266 253.869 83.6277 249.206C 91.3775 244.776 95.0359 241.58 101.333 235.643C 107.795 229.568 112.088 226.575 121.108 222.08L 126.572 220.748C 128.645 220.942 129.714 221.137 129.302 223.587C 129.877 225.459 130.633 226.201 132.222 227.354C 134.671 227.789 136.044 227.877 138.493 227.354L 145.03 225.094C 147.101 224.187 147.39 224.512 147.903 225.091L 147.906 225.094L 145.03 232.377C 141.957 237.637 140.697 240.715 139.756 246.568L 137.496 250.713L 137.496 262.5L 142.77 271.057L 149.927 276.331L 166.125 287.634L 183.077 300.82L 183.83 304.587C 186.479 305.638 186.353 306.856 186.17 308.619C 186.141 308.894 186.111 309.182 186.09 309.485C 188.658 310.699 189.617 311.676 190.987 313.629L 191.741 322.671L 200.028 341.508L 207.562 361.099L 209.069 382.95L 217.357 390.485L 217.357 402.374L 198.521 402.918L 187.22 413.843L 178.556 431.174L 165.372 453.402L 146.537 486.932L 130.715 514.058L 130.715 516.997L 132.975 521.593L 125.065 534.402L 111.127 558.89L 92.6685 590.16L 81.3674 612.388L 68.5596 634.24L 59.8955 647.802L 59.8955 653.548L 60.6489 656.091L 47.4644 679.072L 26.7458 714.863L 25.239 717.877L 25.239 719L 49.4631 719L 143.255 719L 203.273 719L 311.792 719L 432.493 719L 512 719L 507.416 707.705L 496.115 681.709L 488.581 665.133L 488.581 662.483L 490.842 658.728L 488.581 653.651L 479.917 631.979L 466.356 598.449L 454.302 569.063L 444.507 547.211L 444.507 531.213L 449.781 524.607L 446.014 519.332L 446.014 503.573L 448.651 497.481L 448.651 492.761L 444.884 489.569L 445.637 467.718L 451.665 446.997L 456.185 444.36L 456.562 440.216L 454.678 437.202L 455.808 435.695L 460.133 435.695L 467.863 439.462L 486.698 449.634L 497.999 456.416L 501.766 456.039L 507.416 445.113L 510.053 437.955L 502.519 433.057L 473.137 419.495L 458.069 415.727L 447.521 413.09L 429.439 412.336L 429.439 409.689L 431.699 405.178L 432.453 402.918L 432.453 395.221L 431.323 367.88L 428.309 345.652L 428.309 320.754L 440.74 310.615L 447.952 310.615L 453.548 313.629L 458.534 313.629L 467.486 291.024L 470.123 285.75L 467.486 278.57L 461.836 267.289L 462.212 256.364L 467.109 252.596L 468.616 232.629L 460.329 221.703L 454.678 216.806L 454.302 211.531L 445.261 205.503L 444.507 200.982L 440.364 199.099L 414.748 197.215L 373.688 197.968L 370.674 195.331L 365.777 193.071L 356.736 192.317L 344.942 192.317L 330.744 198.345L 318.689 203.619L 307.388 203.996L 302.114 205.88L 299.854 205.503L 299.854 201.209L 286.293 201.209L 286.293 193.824ZM 359.373 305.341L 356.736 326.816C 355.853 337.273 354.447 343.027 351.085 353.188L 349.579 384.834L 344.681 388.602C 344.117 394.296 344.583 397.119 346.188 401.788L 359.373 403.672L 362.763 405.179L 368.037 412.714L 370.674 417.611C 375.206 416.813 377.605 416.083 381.598 414.221C 388.051 415.08 390.553 413.996 394.406 411.207C 399.679 411.617 402.464 411.257 406.837 408.569L 405.234 403.672C 405.418 395.871 405.684 388.992 405.933 382.539C 406.664 363.612 407.254 348.342 405.234 324.182L 390.262 324.182C 377.54 318.322 370.771 314.21 359.373 305.341Z"/>
</defs>
</svg>
