<svg width="1920" height="960" viewBox="0 0 1920 960" version="1.1" xmlns="http://www.w3.org/2000/svg" xmlns:xlink="http://www.w3.org/1999/xlink">
<title>Frame</title>
<desc>Created using Figma</desc>
<g id="Canvas" transform="translate(384 279)">
<clipPath id="clip-0" clip-rule="evenodd">
<path d="M -384 -279L 1536 -279L 1536 681L -384 681L -384 -279Z" fill="#FFFFFF"/>
</clipPath>
<g id="Frame" clip-path="url(#clip-0)">
<path d="M -384 -279L 1536 -279L 1536 681L -384 681L -384 -279Z" fill="#2F80ED"/>
<g id="Vector 3">
<use xlink:href="#path0_fill" transform="translate(-384 113)" fill="#103163"/>
</g>
<g id="Union">
<use xlink:href="#path1_fill" transform="matrix(-0.997805 0.0662257 0.0662257 0.997805 153.278 41)" fill="#103163"/>
</g>
<g id="Union">
<use xlink:href="#path2_fill" transform="matrix(-0.997805 0.0662257 0.0662257 0.997805 -90.5912 201)" fill="#103163"/>
</g>
<g id="Vector 5">
<use xlink:href="#path3_fill" transform="matrix(0.999513 -0.0311984 0.0311984 0.999513 886 -29)" fill="#103163"/>
</g>
</g>
</g>
<defs>
<path id="path0_fill" d="M 1920 568.511L 1918 568.511L 868.951 568.511L 260.718 568.511L 215.273 568.511L 174.598 568.511L 131.549 568.511L 89.2064 569L 59.1904 569L 26.5936 569L 0 569L 0 527.427L 13.9139 527.427L 13.9139 516.317L 29.6232 516.317L 29.6232 513.815L 52.6261 513.815L 52.6261 520.143L 55.4314 520.143L 55.4314 529.046L 58.6854 529.046L 58.6854 524.263L 70.4113 524.263L 88.477 524.263L 88.477 529.855L 92.236 529.855L 92.236 522.424L 97.3976 522.424L 97.3976 518.45L 97.3976 503.661L 97.3976 453.038L 97.3976 438.616L 102.559 438.616L 102.559 433.392L 105.701 433.392L 105.701 425.813L 115.295 425.813L 115.295 421.693L 117.595 421.693L 117.595 413.084L 121.354 413.084L 121.354 409.773L 128.031 409.773L 128.031 402.12L 137.793 402.12L 137.793 396.16L 145.143 396.16L 145.143 402.12L 151.09 402.12L 151.09 410.876L 152.492 410.876L 152.492 415.217L 153.278 415.217L 153.278 482.396L 153.278 505.353L 155.578 505.353L 155.578 501.895L 157.878 501.895L 157.878 499.246L 168.931 499.246L 168.931 497.554L 170.558 497.554L 170.558 495.126L 177.01 495.126L 177.01 493.36L 178.637 493.36L 178.637 499.246L 180.825 499.246L 180.825 496.524L 183.238 496.524L 183.238 498.657L 186.941 498.657L 186.941 505.353L 190.531 505.353L 190.531 525.588L 195.861 525.588L 195.861 401.164L 201.921 401.164L 201.921 396.749L 207.755 396.749L 207.755 391.525L 219.145 391.525L 219.145 397.779L 230.085 397.779L 230.085 410.14L 231.546 410.14L 231.546 426.219L 230.983 523.307L 235.415 523.307L 235.415 528.31L 238.389 528.31L 238.389 524.41L 238.389 521.299L 242.046 521.299L 242.372 492.403L 251.91 492.403L 251.91 490.269L 255.781 490.269L 255.781 433.76L 260.774 433.76L 260.774 423.238L 263.131 423.238L 263.131 426.034L 270.593 426.034L 270.593 427.579L 275.979 427.579L 275.979 430.89L 280.13 430.89L 280.13 434.643L 287.368 434.643L 287.368 461.352L 316.206 461.352L 316.206 466.944L 321.536 466.944L 321.536 439.425L 322.826 439.425L 322.826 434.643L 325.126 434.643L 325.126 430.228L 340.667 430.228L 340.667 432.141L 343.024 432.141L 343.024 434.643L 348.971 434.643L 348.971 442.884L 350.598 442.884L 350.598 447.446L 352.674 447.446L 352.674 449.947L 357.162 449.947L 357.162 454.289L 360.304 454.289L 360.304 456.864L 372.142 456.864L 372.142 459.145L 373.545 459.145L 373.545 477.246L 398.231 477.246L 398.231 513.3L 410.181 513.3L 410.181 517.273L 411.808 517.273L 411.808 516.317L 412.986 516.317L 412.986 467.165L 439.299 467.165L 439.299 486.369L 444.405 486.369L 444.405 491.136L 445.04 491.136C 448.984 487.464 451.884 485.375 458.431 481.587L 460.54 481.587L 460.54 483.923C 468.492 479.622 470.856 478.567 477.539 476.054C 486.343 471.699 491.629 470.65 501.239 469.497L 523.038 469.497C 531.758 470.251 536.604 471.024 545.037 474.087C 561.997 479.665 570.607 484.795 585.564 494.831L 587.023 494.831L 587.023 482.543L 587.023 458.409L 588.481 458.409L 592.858 458.409L 592.858 453.185L 595.27 453.185L 595.27 450.757L 603.349 450.757L 603.349 455.907L 605.649 455.907L 605.649 458.998L 613.841 458.998L 613.841 501.026L 637.667 501.026L 637.667 497.694L 645.114 497.694L 645.114 490.743L 651.991 490.743L 651.991 457.595L 659.306 457.595L 659.306 451.62L 663.161 451.62L 663.161 453.344L 666.928 453.344L 666.928 451.62L 668.242 451.62L 668.242 457.595L 669.907 457.595L 669.907 459.261L 671.966 459.261L 671.966 457.595L 675.645 457.595L 675.645 435.592L 676.872 435.592L 676.872 419.162L 677.923 419.162L 677.923 402.904L 679.149 402.904L 679.149 378.546L 679.982 378.546L 679.982 357.577L 681.033 357.577L 681.033 337.011L 682.128 337.011L 682.128 309.263L 683.092 309.263L 683.092 300.474L 683.092 282.837L 683.968 282.837L 683.968 281.976L 683.968 267.729L 683.968 243.83L 684.8 243.83L 684.8 228.262L 674.112 228.262L 674.112 227.17L 673.499 227.17L 673.499 225.849L 672.666 225.849L 672.666 224.24L 671.615 224.24L 671.615 217.978L 672.316 217.978L 673.148 217.978L 673.148 217.002L 674.112 217.002L 674.112 215.853L 673.499 215.853L 672.666 215.853L 672.666 214.876L 671.615 214.876L 671.615 202.582L 672.666 202.582L 672.666 200.801L 673.718 200.801L 673.718 198.503L 674.857 198.503L 674.857 196.033L 675.557 196.033L 675.557 194.884L 676.521 194.884L 676.521 193.046L 677.31 193.046L 677.31 192.414L 678.886 192.414L 678.886 191.495L 680.025 191.495L 680.025 188.105L 684.406 188.105L 684.625 176.098L 686.027 176.098L 686.027 172.651L 687.472 172.651L 687.472 114.629C 686.024 114.586 685.621 113.396 685.063 110.817L 685.063 107.62C 685.569 104.964 686.587 103.894 690.626 103.254L 690.626 75.9661L 690.626 66.1998C 690.139 66.4749 689.888 66.4576 689.575 65.3956L 689.575 63.4423C 689.775 62.7398 690.084 62.4655 691.064 62.2359L 691.064 50.1719C 690.473 50.3815 690.191 50.3481 690.057 49.1792L 690.057 47.3569L 690.17 47.2411C 690.046 47.096 690.016 46.9489 690.706 46.6953C 690.898 46.5655 691.166 46.4077 691.533 46.208L 691.533 41.3105L 691.809 30.4097C 691.701 30.6036 691.579 30.2502 691.283 29.0309L 691.283 27.25C 691.327 26.7388 691.451 26.5179 692.247 26.5032L 693.033 16.3931L 693.533 3.93433L 694.033 0L 694.533 2.62289L 695.225 12.256L 695.225 26.5032C 696.113 26.1475 696.195 26.662 696.533 27.25L 696.533 29.0309C 696.413 29.893 696.151 30.2147 695.225 30.4097L 695.225 46.208C 695.613 46.19 696.346 45.855 696.533 47.3569C 696.72 48.8588 696.432 49.0221 696.533 48.908L 696.533 49.1792C 696.351 50.1801 696.115 50.4909 695.225 50.1719L 695.225 62.2359L 696.033 62.2359C 696.435 62.2587 696.653 62.5653 697.033 63.4423L 697.033 64.9164C 697.199 65.9606 696.811 66.0769 696.033 66.1998L 696.233 103.604L 696.533 103.604C 699.071 103.897 699.851 104.902 700.533 107.62C 700.752 109.018 700.763 109.725 700.533 110.817C 700.364 113.304 699.921 114.36 697.46 114.629L 697.46 172.651L 698.905 172.651L 698.905 176.098L 701.095 176.098L 701.095 188.105L 706.264 188.105L 706.264 192.126L 709.033 192.126C 711.878 193.98 712.983 195.892 713.532 201.835L 713.532 214.421C 713.017 215.609 712.543 216.094 711.033 216.312L 711.033 217.7C 711.88 218.383 712.249 219.111 712.533 221.634C 712.915 224.489 712.256 225.745 710.031 227.572L 699.781 227.572L 699.781 243.83L 700.57 243.83L 700.57 282.837L 701.227 282.837L 701.227 309.263L 702.059 309.263L 702.059 336.494L 702.716 336.494L 702.716 357.577L 703.373 357.577L 703.373 378.546L 704.205 378.546L 704.205 402.904L 704.994 402.904L 704.994 419.162L 705.695 419.162L 705.695 435.592L 706.352 435.592L 706.352 454.263L 707.228 454.263L 707.228 456.101L 710.075 456.101L 710.075 462.535L 710.776 462.535L 710.776 463.569L 711.74 463.569L 711.74 502.864L 713.141 502.864L 713.141 497.809L 719.843 497.809L 719.843 488.33L 728.736 488.33L 728.736 498.555L 729.393 498.555L 729.393 497.464L 730.269 497.464L 730.269 494.189L 767.721 494.189L 767.721 495.453L 768.992 495.453L 768.992 496.774L 769.955 496.774L 769.955 498.096L 771.269 498.096L 771.269 499.187L 771.97 499.187L 771.97 500.164L 773.512 500.164L 773.512 500.852L 773.512 529.614L 777.972 529.614L 777.972 528.995L 778.811 528.995L 778.811 528.101L 787.206 528.101L 787.206 528.995L 789.2 528.995L 789.2 479.658L 791.403 479.658L 791.403 475.254L 798.224 475.254L 798.224 470.162L 805.622 470.162L 805.622 469.337L 806.514 469.337L 806.514 419.105L 868.951 419.105L 868.951 469.337L 880.231 469.337L 880.231 476.286L 881.018 476.286L 885.583 476.286L 885.583 478.144L 893.715 478.144L 893.715 485.713L 904.156 485.713L 904.156 502.641L 907.881 502.641L 907.881 470.85L 934.797 470.85L 934.797 467.547L 940.988 467.547L 940.988 460.735L 954.21 460.735L 954.21 452.34L 974.935 452.34L 974.935 448.143L 983.33 448.143L 983.33 450.827L 988.577 450.827L 988.577 454.955L 997.391 454.955L 997.391 458.189L 1010.19 458.189L 1010.19 456.607L 1022 456.607L 1022 436.17L 1026.41 436.17L 1026.41 429.358L 1027.19 429.358L 1027.19 427.638L 1040.62 427.638L 1040.62 418.899L 1048.23 418.899L 1048.23 416.284L 1068.9 416.284L 1068.9 427.638L 1071.32 427.638L 1071.32 437.684L 1074.15 437.684L 1074.15 427.982L 1075.78 427.982L 1075.78 429.22L 1080.24 429.22L 1080.24 430.459L 1083.18 430.459L 1083.18 431.697L 1085.75 431.697L 1085.75 432.454L 1086.95 432.454L 1086.95 430.94L 1093.02 430.94L 1093.02 421.629L 1119.06 421.376L 1119.06 404.242L 1121.53 404.242L 1121.53 400.939L 1143.78 400.939L 1143.78 398.737L 1148.81 398.737L 1148.81 323.597L 1149.65 323.597L 1149.65 322.908L 1150.28 322.908L 1150.28 321.739L 1150.96 321.739L 1150.96 321.119L 1151.96 321.119L 1151.96 319.992L 1153.38 319.992L 1153.38 319.468L 1154.32 319.468L 1154.32 318.505L 1159.25 318.505L 1159.25 312.174L 1164.61 312.174L 1164.61 315.683L 1165.24 315.683L 1172.79 315.683L 1172.79 268.846L 1175.02 268.846L 1175.31 279.145L 1178.77 279.145L 1178.77 315.683L 1182.52 315.683L 1182.52 285.239L 1185.38 285.407L 1185.38 318.505L 1187.02 318.505L 1187.02 319.992L 1197.35 320.294L 1197.35 363.025L 1228.72 363.025L 1228.72 424.335L 1233.02 424.335L 1233.02 422.546L 1240.16 422.546L 1240.16 418.967L 1243.57 418.967L 1243.57 396.191L 1245.67 396.191L 1245.67 398.462L 1249.6 398.462L 1249.6 397.568L 1250.23 397.568L 1250.23 396.191L 1254.12 396.191L 1254.12 397.568L 1261.46 397.568L 1261.46 396.191L 1263.93 396.191L 1263.93 398.462L 1272.11 398.462L 1272.11 396.191L 1273.37 396.191L 1273.37 398.462L 1276.78 398.462L 1276.78 397.568L 1278.04 397.568L 1278.04 394.196L 1280.14 394.196L 1280.14 357.52L 1281.87 357.52L 1281.87 356.694L 1282.92 356.694L 1282.92 356.006L 1284.6 356.006L 1284.6 355.18L 1286.07 355.18L 1286.07 353.942L 1286.96 353.942L 1286.96 353.391L 1288.43 353.391L 1288.43 335.57L 1293.89 335.57L 1293.89 332.955L 1308.73 332.955L 1312.72 332.955L 1314.52 332.955L 1314.52 333.762L 1319.52 333.78L 1319.52 372.45L 1324.37 372.108L 1324.37 362.681L 1327.94 362.681L 1327.94 351.809L 1333.34 351.809L 1333.34 348.919L 1335.44 348.919L 1335.44 338.666L 1334.08 338.666L 1334.08 329.858L 1341.26 329.858L 1341.26 339.01L 1340.11 339.01L 1340.11 348.437L 1342.26 348.437L 1342.26 350.914L 1347.4 350.914L 1347.4 361.958L 1351.01 361.958L 1351.23 373.759L 1355.59 373.759L 1355.59 376.443L 1364.61 376.443L 1364.61 379.746L 1367.6 379.746L 1367.6 386.489L 1368.51 386.489L 1368.51 385.564L 1369.86 385.526L 1369.86 384.975L 1370.7 384.975L 1370.7 379.746L 1374.27 379.746L 1374.27 377.544L 1386.81 377.544L 1386.81 380.847L 1389.27 380.847L 1389.27 391.856L 1392.01 391.856L 1392.01 401.957L 1395.01 402.178L 1395.01 413.104L 1395.99 413.325L 1396.67 413.325L 1396.67 424.541L 1406.53 424.541L 1408.51 424.541L 1408.51 427.5L 1406.53 427.5L 1406.53 432.776L 1408.51 432.776L 1408.74 452.684L 1412.36 452.684L 1412.36 457.501L 1413.83 457.501L 1413.83 466.102L 1416.77 466.102L 1416.77 466.859L 1419.81 466.859L 1419.81 428.463L 1425.06 428.463L 1425.06 430.183L 1445.94 430.183L 1445.94 431.904L 1454.23 431.904L 1454.23 434.656L 1456.64 434.656L 1456.64 436.17L 1460.37 436.17L 1460.37 436.72L 1462.31 436.72L 1462.31 433.486L 1465.19 433.486L 1465.19 436.17L 1465.93 436.17L 1465.93 492.526L 1472.85 492.526L 1472.85 507.733L 1474.95 507.733L 1474.95 454.336L 1478.73 454.336L 1478.73 444.702L 1484.71 444.702L 1484.71 446.354L 1496.1 446.354L 1496.1 452.203L 1498.01 452.203L 1498.01 449.825L 1502.71 449.381L 1502.71 435.551L 1535.6 435.551L 1535.6 440.23L 1540.85 440.23L 1540.85 448.005L 1542.95 448.005L 1542.95 449.175L 1543.58 449.175L 1543.58 451.308L 1551.08 451.308L 1551.08 445.459L 1556.91 445.459L 1556.91 444.496L 1557.8 444.496L 1557.8 442.844L 1569.71 442.844L 1569.71 440.23L 1581.62 440.23L 1581.83 442.088L 1584.03 442.088L 1584.03 443.808L 1592.69 443.808L 1592.69 440.23L 1590.07 440.23L 1590.07 430.046L 1594.37 430.046L 1594.37 421.582L 1607.12 421.582L 1607.12 419.174L 1609.27 419.174L 1609.27 421.582L 1615.36 421.582L 1615.36 428.326L 1620.45 428.326L 1620.45 439.679L 1616.72 439.679L 1616.72 443.051L 1633.09 443.051L 1633.09 452.134L 1639.91 452.134L 1639.91 450.551L 1665.41 450.551L 1665.41 452.478L 1683.2 452.478L 1683.2 528.376L 1722.08 528.376L 1722.08 532.504L 1736.24 532.504L 1736.24 535.05L 1736.98 535.05L 1736.98 537.665L 1738.39 537.665L 1738.39 519.637L 1744.32 519.637L 1744.32 518.811L 1745.11 518.811L 1745.11 516.953L 1748.1 516.953L 1748.1 515.577L 1753.29 515.577L 1753.29 518.811L 1762.32 518.811L 1762.32 520.6L 1776.54 520.6L 1776.54 523.972L 1781.05 523.972L 1781.05 526.243L 1781.63 526.243L 1781.63 527.481L 1789.23 527.481L 1789.23 522.389L 1809.33 522.389L 1809.33 527.481L 1814.31 527.481L 1814.31 530.922L 1814.68 530.922L 1819.72 530.922L 1819.72 532.504L 1820.51 532.504L 1820.51 533.192L 1839.45 533.192L 1839.45 532.504L 1839.97 532.504L 1839.97 533.192L 1847.53 533.192L 1847.53 535.876L 1857.81 535.876L 1857.81 531.541L 1864.47 531.541L 1864.47 528.169L 1866.78 528.169L 1866.78 527.206L 1867.41 527.206L 1867.41 522.183L 1868.98 522.183L 1868.98 528.169L 1871.98 528.169L 1871.98 525.486L 1875.75 525.486L 1875.75 522.183L 1878.01 522.183L 1878.01 523.972L 1881.63 523.972L 1881.63 522.183L 1891.39 522.183L 1891.39 521.426L 1892.81 521.426L 1892.81 524.935L 1895.17 524.935L 1895.17 519.774L 1911.59 519.774L 1911.59 518.742L 1912.22 518.742L 1912.22 493.214L 1914.58 493.214L 1914.58 517.985L 1920 517.985L 1920 568.511Z"/>
<path id="path1_fill" fill-rule="evenodd" d="M 49.5445 20.373L 49.5439 20.3732L 49.5225 20.3808C 47.4558 21.3973 45.9436 22.5431 44.5566 23.594C 43.8955 24.0949 43.263 24.5742 42.6124 25.0076C 39.1943 27.3042 37.6594 28.4756 35.7022 30.2128C 33.6985 31.627 32.2096 32.7822 30.808 33.8698C 30.1317 34.3944 29.4758 34.9034 28.7921 35.418C 26.8094 36.5207 25.9091 37.1579 24.7612 38.3099C 23.4712 40.1277 21.882 41.78 21.882 41.78C 20.0453 43.1024 19.1157 43.8564 17.8511 45.2501C 15.7989 47.0615 14.7395 48.0754 13.2444 49.877C 11.1586 51.2582 10.0335 52.0286 8.63765 53.3471C 6.59432 54.8173 5.68724 55.7296 4.11511 57.3109L 4.0309 57.3956C 2.50225 58.338 1.98766 58.8334 1.15169 59.709C 0.255195 60.1694 0.128248 60.4202 0 60.8657C 0 60.8657 2.6226e-06 61.4441 0.575852 61.4441L 2.30337 61.4441L 5.18258 59.7091L 8.06181 56.8173L 9.78932 55.6605L 9.17929 57.3956L 7.22778 59.709L 5.75844 62.6008L 4.03089 65.5172L 4.03092 66.3573L 5.1826 66.0073L 6.33427 64.9142L 8.06181 62.6008L 9.1793 61.4441L 10.941 60.2874L 11.6187 60.2874L 10.3642 62.6008L 9.17931 65.5173L 9.17929 66.8473L 9.78934 67.3373L 10.3641 67.3373L 10.941 66.3573L 12.0369 65.5173L 13.2444 64.3273L 14.3961 62.0225L 15.5217 60.8657L 16.2884 59.709L 17.1248 60.2874L 17.543 60.2874L 16.6369 62.6008L 16.6369 63.4872L 17.1248 63.4872L 17.543 63.9772L 18.3096 62.6008L 19.5642 62.6008L 20.1218 62.6008L 20.1218 62.0224L 20.749 60.2874L 22.9097 59.709L 25.9129 58.5523L 28.7922 58.0271L 31.6713 56.2389L 34.1309 55.6605L 37.4298 54.5038L 41.4607 52.1904L 43.1882 52.7688L 44.7249 52.1904L 49.5225 50.4554L 56.4326 48.7202L 57.0084 47.5635L 58.1601 48.1419L 62.7669 45.8285L 65.0702 46.4069L 66.7978 45.2501L 67.3736 44.0934L 68.5253 44.6717L 73.7079 43.5151L 75.2523 43.5151L 75.4354 42.3583L 77.1629 42.9367L 80.4099 42.3583L 82.9213 41.2016L 84.073 40.0449L 85.2887 40.0449L 86.6129 40.0449L 87.5887 41.2016L 88.7736 42.3584L 92.8857 45.8285L 95.0463 47.5636L 98.4691 49.877L 101.348 51.6121C 104.476 54.1737 106.448 55.1386 109.986 56.8173C 114.359 58.6607 116.873 59.563 121.503 60.8657C 125.142 62.0901 127.237 62.6801 131.292 63.1792L 132.892 63.1792L 134.171 65.4926L 135.323 68.9628L 137.626 70.1195L 141.081 76.4814L 142.809 79.3732L 143.961 80.5299L 145.112 79.9516L 145.647 79.3732L 146.901 79.9515L 147.992 81.1083L 148.853 80.5299L 148.853 79.3732L 148.853 78.1176L 148.853 76.4814L 148.853 75.9475L 150.295 77.0598L 150.665 78.1175C 151.264 81.2018 152.145 81.9883 153.675 83.355L 153.75 83.4217L 154.326 84.0001L 154.902 82.8433L 154.326 82.2477L 155.265 81.1082L 156.45 81.1083L 156.868 82.2477L 157.286 82.2476L 157.844 81.1082L 157.286 79.9515L 156.868 78.6076L 157.844 78.1176L 158.819 79.3732L 160.084 77.6381L 161.607 75.9475L 163.28 75.9475L 163.28 75.2475L 162.963 73.5896L 163.28 72.3074L 164.047 72.3074L 164.691 69.5411C 164.691 69.5411 162.461 67.802 163.28 67.6173C 163.811 67.4975 164.163 67.2849 164.556 67.0472C 164.769 66.9184 164.994 66.7822 165.267 66.6493C 165.079 66.5346 164.9 66.424 164.728 66.3173C 163.141 65.336 162.103 64.6938 159.508 64.3359C 160.669 63.477 161.138 62.9267 161.607 61.8072C 160.518 61.3814 159.908 61.4198 158.819 61.8072C 158.477 61.6222 158.153 61.4441 157.841 61.2729C 155.285 59.8679 153.585 58.9336 149.719 58.5523C 149.683 58.3457 149.649 58.1448 149.615 57.9488C 149.105 54.9736 148.789 53.1308 146.84 49.877C 145.97 48.1569 145.365 47.3601 143.961 46.4068L 140.506 42.3583L 141.081 40.9467L 143.068 42.3583L 144.322 42.3583L 145.647 40.9467L 147.992 41.78L 150.295 40.9467L 152.598 40.0449L 156.629 38.8882L 158.819 39.6167L 160.631 38.8882L 166.419 38.3098L 169.831 38.3098L 175.056 39.4666L 179.31 40.9467L 182.516 40.9467L 185.513 41.7799L 188.301 42.3583L 191.756 44.0934L 196.362 44.6718L 198.477 44.6718L 201.545 46.9852L 205 50.4553L 205 48.7869L 200.969 45.2501L 196.038 42.3583L 197.292 41.78L 199.801 41.78L 202.45 41.78L 203.844 40.9467L 202.45 40.1767C 201.416 40.0074 200.836 39.9613 199.801 40.1767C 197.733 39.808 196.573 39.8825 194.504 40.1767C 192.66 39.0651 191.658 38.4948 190.028 37.7315C 182.289 32.6965 177.659 30.1333 168.722 26.1643L 162.388 23.8509C 160.393 22.7817 158.719 21.7944 157.15 20.8682C 152.655 18.2157 149.009 16.0643 141.081 13.9261C 139.282 13.7858 138.273 13.9084 136.475 14.5972C 135.104 14.7394 133.823 14.8637 132.607 14.9816C 126.149 15.608 121.539 16.0551 115.169 18.0673C 114.874 17.9814 114.592 17.8983 114.319 17.8179C 111.557 17.0042 109.771 16.478 106.531 16.3323C 104.74 16.1795 103.73 16.3608 101.924 16.9106C 100.524 16.5756 99.7633 16.4435 98.4615 16.3323C 96.5493 15.5953 95.4693 15.2195 93.2865 15.7539C 91.3423 16.7376 90.4455 17.3652 89.2556 18.6457L 84.9402 16.3322L 77.7388 12.8622L 68.5253 5.92187L 66.2219 3.60839L 63.9185 1.87334C 62.0957 0.18658 60.5356 -0.265593 56.4326 0.138303L 53.5534 1.29496L 51.4856 3.60843L 50.0983 5.34351L 47.2191 7.65688L 44.9157 8.23526L 43.331 8.23529L 42.6124 8.81363L 43.7641 9.97037L 45.9098 9.97035L 50.0413 11.4556C 51.7899 12.2505 55.7132 13.1305 62.428 13.9223L 62.428 13.9261L 67.9495 15.7539L 70.2528 16.3323L 69.9689 17.5026C 65.0715 17.0557 62.4577 17.1133 58.1601 18.0673C 54.0343 18.7857 52.417 19.3574 49.5445 20.373ZM 62.6419 10.9653C 60.7595 11.3131 57.5484 11.2201 53.8193 10.9515L 56.4326 9.23597L 58.1601 7.65692L 59.7098 5.34346L 61.6152 3.03007L 63.9185 3.60841L 63.9186 5.92184L 63.5432 8.81364L 62.6419 10.9653Z"/>
<path id="path2_fill" fill-rule="evenodd" d="M 61.9272 27.5514C 57.8012 28.2699 56.1838 28.8417 53.311 29.8573L 53.2896 29.8649C 51.223 30.8814 49.7108 32.0272 48.3238 33.078C 47.6627 33.5789 47.0301 34.0582 46.3795 34.4917C 42.9614 36.7882 41.4265 37.9597 39.4694 39.6969C 37.4654 41.1111 35.9765 42.2665 34.5748 43.354C 33.8986 43.8787 33.2428 44.3875 32.5593 44.9021C 30.5765 46.0048 29.6762 46.642 28.5284 47.7939C 27.2383 49.6118 25.6491 51.2641 25.6491 51.2641C 23.8125 52.5865 22.8828 53.3405 21.6183 54.7342C 19.566 56.5455 18.5067 57.5595 17.0115 59.3611C 14.9257 60.7423 13.8006 61.5127 12.4048 62.8312C 10.3615 64.3014 9.45436 65.2138 7.88222 66.795L 7.79803 66.8797C 6.26939 67.8221 5.75478 68.3175 4.91882 69.1931C 4.02232 69.6535 3.89537 69.9043 3.76713 70.3498C 3.76713 70.3498 3.76713 70.9282 4.34297 70.9282L 6.0705 70.9282L 8.94972 69.1931L 11.8289 66.3013L 13.5565 65.1446L 12.9464 66.8797L 10.9949 69.1931L 9.52556 72.0849L 7.79803 75.0014L 7.79803 75.8414L 8.94972 75.4914L 10.1014 74.3983L 11.8289 72.0849L 12.9464 70.9282L 14.7081 69.7715L 15.3858 69.7715L 14.1313 72.0849L 12.9464 75.0014L 12.9464 76.3314L 13.5565 76.8214L 14.1313 76.8214L 14.7081 75.8414L 15.804 75.0013L 17.0115 73.8113L 18.1632 71.5066L 19.2889 70.3498L 20.0555 69.1931L 20.8919 69.7715L 21.3101 69.7715L 20.404 72.0849L 20.404 72.9713L 20.8919 72.9713L 21.3101 73.4613L 22.0768 72.0849L 23.3313 72.0849L 23.8889 72.0849L 23.8889 71.5066L 24.5162 69.7715L 26.6768 69.1931L 29.6801 68.0364L 32.5593 67.5112L 35.4385 65.723L 37.898 65.1446L 41.1969 63.9879L 45.2278 61.6745L 46.9553 62.2528L 48.492 61.6745L 53.2896 59.9394L 60.1997 58.2044L 60.7756 57.0476L 61.9272 57.626L 66.534 55.3126L 68.8374 55.8909L 70.5649 54.7342L 71.1407 53.5775L 72.2924 54.1558L 77.475 52.9991L 79.0194 52.9991L 79.2025 51.8424L 80.93 52.4208L 84.177 51.8424L 86.6885 50.6857L 87.8402 49.529L 89.0558 49.529L 90.3801 49.529L 91.3558 50.6857L 92.5407 51.8424L 96.6528 55.3126L 98.8135 57.0476L 102.236 59.361L 105.115 61.0961C 108.243 63.6578 110.215 64.6226 113.753 66.3013C 118.126 68.1448 120.64 69.0471 125.27 70.3498C 128.909 71.5741 131.004 72.1642 135.059 72.6633L 136.659 72.6633L 137.938 74.9767L 139.09 78.4468L 141.394 79.6036L 144.849 85.9655L 146.576 88.8572L 147.728 90.014L 148.879 89.4356L 149.414 88.8573L 150.668 89.4356L 151.759 90.5923L 152.62 90.014L 152.62 88.8573L 152.62 87.6016L 152.62 85.9655L 152.62 85.4316L 154.062 86.5438L 154.432 87.6017C 155.031 90.6858 155.912 91.4724 157.442 92.8391L 157.517 92.9058L 158.093 93.4841L 158.669 92.3274L 158.093 91.7317L 159.032 90.5923L 160.217 90.5923L 160.635 91.7317L 161.053 91.7317L 161.611 90.5923L 161.053 89.4356L 160.635 88.0917L 161.611 87.6017L 162.586 88.8573L 163.851 87.1222L 165.374 85.4316L 167.047 85.4316L 167.047 84.7316L 166.731 83.0737L 167.047 81.7915L 167.814 81.7915L 168.458 79.0252C 168.458 79.0252 166.228 77.2861 167.047 77.1014C 167.578 76.9816 167.93 76.7691 168.323 76.5313C 168.536 76.4025 168.761 76.2663 169.034 76.1334C 168.846 76.0187 168.667 75.9081 168.495 75.8014C 166.908 74.8202 165.87 74.1779 163.276 73.82C 164.437 72.9611 164.905 72.4108 165.374 71.2913C 164.286 70.8655 163.675 70.9039 162.586 71.2913C 162.244 71.1063 161.92 70.9281 161.608 70.7569C 159.052 69.3519 157.352 68.4177 153.486 68.0364C 153.45 67.8298 153.416 67.6289 153.382 67.4329C 152.872 64.4576 152.556 62.6148 150.607 59.3611C 149.737 57.641 149.132 56.8442 147.728 55.8909L 144.273 51.8424L 144.849 50.4308L 146.835 51.8424L 148.089 51.8424L 149.414 50.4308L 151.759 51.264L 154.062 50.4308L 156.365 49.529L 160.396 48.3723L 162.586 49.1008L 164.399 48.3723L 170.186 47.7939L 173.599 47.7939L 178.823 48.9506L 183.077 50.4308L 186.284 50.4308L 189.281 51.2641L 192.068 51.8424L 195.523 53.5775L 200.129 54.1558L 202.244 54.1558L 205.312 56.4693L 208.767 59.9394L 208.767 58.271L 204.736 54.7342L 199.805 51.8424L 201.059 51.2641L 203.568 51.2641L 206.217 51.264L 207.611 50.4308L 206.217 49.6608C 205.183 49.4915 204.603 49.4454 203.568 49.6608C 201.5 49.2921 200.34 49.3666 198.271 49.6608C 196.427 48.5492 195.425 47.9788 193.795 47.2156C 186.057 42.1806 181.426 39.6173 172.489 35.6484L 166.155 33.335C 164.16 32.2658 162.487 31.2785 160.917 30.3523C 156.422 27.6998 152.776 25.5483 144.849 23.4102C 143.049 23.2699 142.04 23.3924 140.242 24.0813C 138.871 24.2235 137.59 24.3477 136.374 24.4657C 129.916 25.092 125.306 25.5391 118.936 27.5514C 118.642 27.4656 118.359 27.3824 118.087 27.3021C 115.324 26.4883 113.538 25.9621 110.298 25.8163C 108.507 25.6636 107.498 25.8449 105.691 26.3947C 104.291 26.0597 103.53 25.9276 102.229 25.8163C 100.316 25.0794 99.2364 24.7036 97.0536 25.238C 95.1094 26.2217 94.2127 26.8492 93.0227 28.1298L 88.7073 25.8164L 81.5059 22.3462L 72.2924 15.4059L 69.9891 13.0925L 67.6857 11.3574C 65.8629 9.6707 64.3027 9.21846 60.1997 9.62236L 57.3205 10.7791L 55.2527 13.0925L 53.8655 14.8276L 50.9862 17.141L 48.6829 17.7193L 47.0981 17.7193L 46.3795 18.2977L 47.5312 19.4544L 49.6769 19.4544L 53.8085 20.9397C 55.5571 21.7346 59.4805 22.6147 66.1952 23.4064L 66.1951 23.4102L 71.7166 25.238L 74.0199 25.8164L 73.736 26.9867C 68.8386 26.5397 66.2248 26.5975 61.9272 27.5514ZM 66.409 20.4494C 64.5267 20.7973 61.3155 20.7042 57.5864 20.4356L 60.1997 18.7201L 61.9272 17.141L 63.4769 14.8276L 65.3823 12.5142L 67.6857 13.0925L 67.6857 15.4059L 67.3103 18.2977L 66.409 20.4494Z"/>
<path id="path3_fill" d="M 147.914 67.6318C 164.227 31.7861 180.769 15.528 236.219 0C 312.759 1.41092 343.146 17.2319 363.53 86.0277C 392.45 88.1147 401.772 96.4357 417.705 111.998C 458.707 110.475 470.273 119.917 477 149.288C 473.069 182.094 460.277 191.077 424.206 195.321C 375.395 235.388 346.315 244.373 287.143 202.895C 256.86 220.131 239.777 221.639 209.131 210.47C 169.588 236.636 148.872 234.222 114.867 195.321C 58.3445 213.223 -2.02207 192.034 0.945987 160.693C -5.55309 120.069 21.0514 89.7678 92.6551 98.4719C 95.3821 63.9861 126.101 58.5359 147.914 67.6318Z"/>
</defs>
</svg>
