<svg width="55" height="56" viewBox="0 0 86 87" version="1.1" xmlns="http://www.w3.org/2000/svg" xmlns:xlink="http://www.w3.org/1999/xlink">
<title>LinkedIn</title>
<desc>Created using Figma</desc>
<g id="Canvas" transform="translate(-1200 2616)">
<g id="LinkedIn">
<use xlink:href="#path0_fill" transform="translate(1200 -2623)" fill="#F2F2F2"/>
</g>
</g>
<defs>
<path id="path0_fill" d="M 13.2254 79.192L 13.2254 40.4643L 26.1161 40.4643L 26.1161 79.192L 13.2254 79.192ZM 26.9531 28.5223C 26.9531 32.2054 24.1629 35.2188 19.6429 35.2188L 19.5871 35.2188C 15.2344 35.2188 12.4442 32.2054 12.4442 28.5223C 12.4442 24.7277 15.346 21.8259 19.7545 21.8259C 24.1629 21.8259 26.8973 24.7277 26.9531 28.5223ZM 59.5982 79.192L 59.5982 58.4888C 59.5982 53.2433 57.7567 49.7277 53.125 49.7277C 49.5536 49.7277 47.433 52.1272 46.4844 54.4152C 46.1496 55.2522 46.0938 56.4241 46.0938 57.5402L 46.0938 79.192L 33.2031 79.192C 33.3705 44.0915 33.2031 40.4643 33.2031 40.4643L 46.0938 40.4643L 46.0938 46.1004L 45.9821 46.1004C 47.6562 43.4219 50.7254 39.5714 57.6451 39.5714C 66.1272 39.5714 72.4888 45.096 72.4888 56.9821L 72.4888 79.192L 59.5982 79.192ZM 85.7143 23.5C 85.7143 14.6272 78.5156 7.42857 69.6429 7.42857L 16.0714 7.42857C 7.19866 7.42857 0 14.6272 0 23.5L 0 77.0714C 0 85.9442 7.19866 93.1429 16.0714 93.1429L 69.6429 93.1429C 78.5156 93.1429 85.7143 85.9442 85.7143 77.0714L 85.7143 23.5Z"/>
</defs>
</svg>
